<?xml version="1.0" encoding="UTF-8"?>
<!DOCTYPE svg PUBLIC "-//W3C//DTD SVG 1.1//EN" "http://www.w3.org/Graphics/SVG/1.1/DTD/svg11.dtd">
<!-- Creator: CorelDRAW 2020 (64-Bit) -->
<svg xmlns="http://www.w3.org/2000/svg" xml:space="preserve" width="297mm" height="210mm" version="1.1" style="shape-rendering:geometricPrecision; text-rendering:geometricPrecision; image-rendering:optimizeQuality; fill-rule:evenodd; clip-rule:evenodd"
viewBox="0 0 29700 21000"
 xmlns:xlink="http://www.w3.org/1999/xlink"
 xmlns:xodm="http://www.corel.com/coreldraw/odm/2003">
 <defs>
  <style type="text/css">
   <![CDATA[
    .str0 {stroke:#20599D;stroke-width:25.01;stroke-miterlimit:22.9256}
    .fil16 {fill:url(#id0);fill-rule:nonzero}
    .fil14 {fill:url(#id1);fill-rule:nonzero}
    .fil19 {fill:url(#id2);fill-rule:nonzero}
    .fil15 {fill:url(#id3);fill-rule:nonzero}
    .fil20 {fill:url(#id4);fill-rule:nonzero}
    .fil18 {fill:url(#id5);fill-rule:nonzero}
    .fil13 {fill:url(#id6);fill-rule:nonzero}
    .fil12 {fill:url(#id7);fill-rule:nonzero}
    .fil17 {fill:url(#id8);fill-rule:nonzero}
    .fil36 {fill:url(#id9);fill-rule:nonzero}
    .fil45 {fill:url(#id10);fill-rule:nonzero}
    .fil33 {fill:url(#id11);fill-rule:nonzero}
    .fil49 {fill:url(#id12);fill-rule:nonzero}
    .fil53 {fill:url(#id13);fill-rule:nonzero}
    .fil46 {fill:url(#id14);fill-rule:nonzero}
    .fil48 {fill:url(#id15);fill-rule:nonzero}
    .fil51 {fill:url(#id16);fill-rule:nonzero}
    .fil50 {fill:url(#id17);fill-rule:nonzero}
    .fil55 {fill:url(#id18);fill-rule:nonzero}
    .fil34 {fill:url(#id19);fill-rule:nonzero}
    .fil39 {fill:url(#id20);fill-rule:nonzero}
    .fil43 {fill:url(#id21);fill-rule:nonzero}
    .fil47 {fill:url(#id22);fill-rule:nonzero}
    .fil57 {fill:url(#id23);fill-rule:nonzero}
    .fil44 {fill:url(#id24);fill-rule:nonzero}
    .fil35 {fill:url(#id25);fill-rule:nonzero}
    .fil42 {fill:url(#id26);fill-rule:nonzero}
    .fil52 {fill:url(#id27);fill-rule:nonzero}
    .fil38 {fill:url(#id28);fill-rule:nonzero}
    .fil58 {fill:url(#id29);fill-rule:nonzero}
    .fil54 {fill:url(#id30);fill-rule:nonzero}
    .fil56 {fill:url(#id31);fill-rule:nonzero}
    .fil41 {fill:url(#id32);fill-rule:nonzero}
    .fil37 {fill:url(#id33);fill-rule:nonzero}
    .fil40 {fill:url(#id34);fill-rule:nonzero}
    .fil22 {fill:url(#id35);fill-rule:nonzero}
    .fil32 {fill:url(#id36);fill-rule:nonzero}
    .fil59 {fill:url(#id37);fill-rule:nonzero}
    .fil60 {fill:url(#id38);fill-rule:nonzero}
    .fil63 {fill:url(#id39);fill-rule:nonzero}
    .fil27 {fill:url(#id40);fill-rule:nonzero}
    .fil23 {fill:url(#id41);fill-rule:nonzero}
    .fil30 {fill:url(#id42);fill-rule:nonzero}
    .fil24 {fill:url(#id43);fill-rule:nonzero}
    .fil62 {fill:url(#id44);fill-rule:nonzero}
    .fil21 {fill:url(#id45);fill-rule:nonzero}
    .fil7 {fill:url(#id46);fill-rule:nonzero}
    .fil25 {fill:url(#id47);fill-rule:nonzero}
    .fil61 {fill:url(#id48);fill-rule:nonzero}
    .fil5 {fill:url(#id49);fill-rule:nonzero}
    .fil9 {fill:url(#id50);fill-rule:nonzero}
    .fil4 {fill:url(#id51);fill-rule:nonzero}
    .fil11 {fill:url(#id52);fill-rule:nonzero}
    .fil28 {fill:url(#id53);fill-rule:nonzero}
    .fil26 {fill:url(#id54);fill-rule:nonzero}
    .fil2 {fill:url(#id55);fill-rule:nonzero}
    .fil29 {fill:url(#id56);fill-rule:nonzero}
    .fil1 {fill:url(#id57);fill-rule:nonzero}
    .fil0 {fill:url(#id58);fill-rule:nonzero}
    .fil6 {fill:url(#id59);fill-rule:nonzero}
    .fil31 {fill:url(#id60);fill-rule:nonzero}
    .fil10 {fill:url(#id61);fill-rule:nonzero}
    .fil3 {fill:url(#id62);fill-rule:nonzero}
    .fil8 {fill:url(#id63);fill-rule:nonzero}
   ]]>
  </style>
  <linearGradient id="id0" gradientUnits="userSpaceOnUse" x1="11562.7" y1="10509.05" x2="29344.12" y2="13605.89">
   <stop offset="0" style="stop-opacity:1; stop-color:#5198D2"/>
   <stop offset="0.439216" style="stop-opacity:1; stop-color:#42679D"/>
   <stop offset="1" style="stop-opacity:1; stop-color:#333568"/>
  </linearGradient>
  <linearGradient id="id1" gradientUnits="userSpaceOnUse" xlink:href="#id0" x1="11562.7" y1="10509.05" x2="29344.12" y2="13605.89">
  </linearGradient>
  <linearGradient id="id2" gradientUnits="userSpaceOnUse" xlink:href="#id0" x1="11562.7" y1="10509.05" x2="29344.12" y2="13605.89">
  </linearGradient>
  <linearGradient id="id3" gradientUnits="userSpaceOnUse" xlink:href="#id0" x1="11562.7" y1="10509.05" x2="29344.12" y2="13605.89">
  </linearGradient>
  <linearGradient id="id4" gradientUnits="userSpaceOnUse" xlink:href="#id0" x1="11562.7" y1="10509.05" x2="29344.12" y2="13605.89">
  </linearGradient>
  <linearGradient id="id5" gradientUnits="userSpaceOnUse" xlink:href="#id0" x1="11562.7" y1="10509.05" x2="29344.12" y2="13605.89">
  </linearGradient>
  <linearGradient id="id6" gradientUnits="userSpaceOnUse" xlink:href="#id0" x1="11562.7" y1="10509.05" x2="29344.12" y2="13605.89">
  </linearGradient>
  <linearGradient id="id7" gradientUnits="userSpaceOnUse" xlink:href="#id0" x1="11562.7" y1="10509.05" x2="29344.12" y2="13605.89">
  </linearGradient>
  <linearGradient id="id8" gradientUnits="userSpaceOnUse" xlink:href="#id0" x1="11562.7" y1="10509.05" x2="29344.12" y2="13605.89">
  </linearGradient>
  <linearGradient id="id9" gradientUnits="userSpaceOnUse" xlink:href="#id0" x1="-597.86" y1="9415.3" x2="22241.62" y2="13393.06">
  </linearGradient>
  <linearGradient id="id10" gradientUnits="userSpaceOnUse" xlink:href="#id0" x1="-597.86" y1="9415.3" x2="22241.62" y2="13393.06">
  </linearGradient>
  <linearGradient id="id11" gradientUnits="userSpaceOnUse" xlink:href="#id0" x1="-597.86" y1="9415.3" x2="22241.62" y2="13393.06">
  </linearGradient>
  <linearGradient id="id12" gradientUnits="userSpaceOnUse" xlink:href="#id0" x1="-597.86" y1="9415.3" x2="22241.62" y2="13393.06">
  </linearGradient>
  <linearGradient id="id13" gradientUnits="userSpaceOnUse" xlink:href="#id0" x1="-597.86" y1="9415.3" x2="22241.62" y2="13393.06">
  </linearGradient>
  <linearGradient id="id14" gradientUnits="userSpaceOnUse" xlink:href="#id0" x1="-597.86" y1="9415.3" x2="22241.62" y2="13393.06">
  </linearGradient>
  <linearGradient id="id15" gradientUnits="userSpaceOnUse" xlink:href="#id0" x1="-597.86" y1="9415.3" x2="22241.62" y2="13393.06">
  </linearGradient>
  <linearGradient id="id16" gradientUnits="userSpaceOnUse" xlink:href="#id0" x1="-597.86" y1="9415.3" x2="22241.62" y2="13393.06">
  </linearGradient>
  <linearGradient id="id17" gradientUnits="userSpaceOnUse" xlink:href="#id0" x1="-597.86" y1="9415.3" x2="22241.62" y2="13393.06">
  </linearGradient>
  <linearGradient id="id18" gradientUnits="userSpaceOnUse" xlink:href="#id0" x1="-597.86" y1="9415.3" x2="22241.62" y2="13393.06">
  </linearGradient>
  <linearGradient id="id19" gradientUnits="userSpaceOnUse" xlink:href="#id0" x1="-597.86" y1="9415.3" x2="22241.62" y2="13393.06">
  </linearGradient>
  <linearGradient id="id20" gradientUnits="userSpaceOnUse" xlink:href="#id0" x1="-597.86" y1="9415.3" x2="22241.62" y2="13393.06">
  </linearGradient>
  <linearGradient id="id21" gradientUnits="userSpaceOnUse" xlink:href="#id0" x1="-597.86" y1="9415.3" x2="22241.62" y2="13393.06">
  </linearGradient>
  <linearGradient id="id22" gradientUnits="userSpaceOnUse" xlink:href="#id0" x1="-597.86" y1="9415.3" x2="22241.62" y2="13393.06">
  </linearGradient>
  <linearGradient id="id23" gradientUnits="userSpaceOnUse" xlink:href="#id0" x1="-597.86" y1="9415.3" x2="22241.62" y2="13393.06">
  </linearGradient>
  <linearGradient id="id24" gradientUnits="userSpaceOnUse" xlink:href="#id0" x1="-597.86" y1="9415.3" x2="22241.62" y2="13393.06">
  </linearGradient>
  <linearGradient id="id25" gradientUnits="userSpaceOnUse" xlink:href="#id0" x1="-597.86" y1="9415.3" x2="22241.62" y2="13393.06">
  </linearGradient>
  <linearGradient id="id26" gradientUnits="userSpaceOnUse" xlink:href="#id0" x1="-597.86" y1="9415.3" x2="22241.62" y2="13393.06">
  </linearGradient>
  <linearGradient id="id27" gradientUnits="userSpaceOnUse" xlink:href="#id0" x1="-597.86" y1="9415.3" x2="22241.62" y2="13393.06">
  </linearGradient>
  <linearGradient id="id28" gradientUnits="userSpaceOnUse" xlink:href="#id0" x1="-597.86" y1="9415.3" x2="22241.62" y2="13393.06">
  </linearGradient>
  <linearGradient id="id29" gradientUnits="userSpaceOnUse" xlink:href="#id0" x1="-597.86" y1="9415.3" x2="22241.62" y2="13393.06">
  </linearGradient>
  <linearGradient id="id30" gradientUnits="userSpaceOnUse" xlink:href="#id0" x1="-597.86" y1="9415.3" x2="22241.62" y2="13393.06">
  </linearGradient>
  <linearGradient id="id31" gradientUnits="userSpaceOnUse" xlink:href="#id0" x1="-597.86" y1="9415.3" x2="22241.62" y2="13393.06">
  </linearGradient>
  <linearGradient id="id32" gradientUnits="userSpaceOnUse" xlink:href="#id0" x1="-597.86" y1="9415.3" x2="22241.62" y2="13393.06">
  </linearGradient>
  <linearGradient id="id33" gradientUnits="userSpaceOnUse" xlink:href="#id0" x1="-597.86" y1="9415.3" x2="22241.62" y2="13393.06">
  </linearGradient>
  <linearGradient id="id34" gradientUnits="userSpaceOnUse" xlink:href="#id0" x1="-597.86" y1="9415.3" x2="22241.62" y2="13393.06">
  </linearGradient>
  <linearGradient id="id35" gradientUnits="userSpaceOnUse" xlink:href="#id0" x1="11571" y1="10537.38" x2="29352.43" y2="13634.23">
  </linearGradient>
  <linearGradient id="id36" gradientUnits="userSpaceOnUse" xlink:href="#id0" x1="-597.72" y1="9415.47" x2="22241.46" y2="13393.18">
  </linearGradient>
  <linearGradient id="id37" gradientUnits="userSpaceOnUse" xlink:href="#id0" x1="-598.5" y1="9413.13" x2="22240.99" y2="13390.89">
  </linearGradient>
  <linearGradient id="id38" gradientUnits="userSpaceOnUse" xlink:href="#id0" x1="-601.14" y1="9404.13" x2="22238.35" y2="13381.89">
  </linearGradient>
  <linearGradient id="id39" gradientUnits="userSpaceOnUse" xlink:href="#id0" x1="-620.68" y1="9337.44" x2="22218.81" y2="13315.2">
  </linearGradient>
  <linearGradient id="id40" gradientUnits="userSpaceOnUse" xlink:href="#id0" x1="11694.94" y1="10960.4" x2="29476.37" y2="14057.25">
  </linearGradient>
  <linearGradient id="id41" gradientUnits="userSpaceOnUse" xlink:href="#id0" x1="11584.08" y1="10582.03" x2="29365.51" y2="13678.87">
  </linearGradient>
  <linearGradient id="id42" gradientUnits="userSpaceOnUse" xlink:href="#id0" x1="11832.77" y1="11430.8" x2="29614.2" y2="14527.65">
  </linearGradient>
  <linearGradient id="id43" gradientUnits="userSpaceOnUse" xlink:href="#id0" x1="11603.16" y1="10647.15" x2="29384.59" y2="13743.99">
  </linearGradient>
  <linearGradient id="id44" gradientUnits="userSpaceOnUse" xlink:href="#id0" x1="-612.46" y1="9365.5" x2="22227.03" y2="13343.27">
  </linearGradient>
  <linearGradient id="id45" gradientUnits="userSpaceOnUse" xlink:href="#id0" x1="11563.98" y1="10513.44" x2="29345.41" y2="13610.29">
  </linearGradient>
  <linearGradient id="id46" gradientUnits="userSpaceOnUse" xlink:href="#id0" x1="11285.37" y1="9562.55" x2="29066.8" y2="12659.4">
  </linearGradient>
  <linearGradient id="id47" gradientUnits="userSpaceOnUse" xlink:href="#id0" x1="11628.12" y1="10732.35" x2="29409.55" y2="13829.19">
  </linearGradient>
  <linearGradient id="id48" gradientUnits="userSpaceOnUse" xlink:href="#id0" x1="-605.83" y1="9388.12" x2="22233.66" y2="13365.88">
  </linearGradient>
  <linearGradient id="id49" gradientUnits="userSpaceOnUse" xlink:href="#id0" x1="11169.91" y1="9168.49" x2="28951.34" y2="12265.34">
  </linearGradient>
  <linearGradient id="id50" gradientUnits="userSpaceOnUse" xlink:href="#id0" x1="11399.74" y1="9952.9" x2="29181.17" y2="13049.75">
  </linearGradient>
  <linearGradient id="id51" gradientUnits="userSpaceOnUse" xlink:href="#id0" x1="11111.89" y1="8970.48" x2="28893.32" y2="12067.33">
  </linearGradient>
  <linearGradient id="id52" gradientUnits="userSpaceOnUse" xlink:href="#id0" x1="11512.44" y1="10337.51" x2="29293.86" y2="13434.36">
  </linearGradient>
  <linearGradient id="id53" gradientUnits="userSpaceOnUse" xlink:href="#id0" x1="11736.28" y1="11101.47" x2="29517.7" y2="14198.31">
  </linearGradient>
  <linearGradient id="id54" gradientUnits="userSpaceOnUse" xlink:href="#id0" x1="11658.8" y1="10837.05" x2="29440.23" y2="13933.89">
  </linearGradient>
  <linearGradient id="id55" gradientUnits="userSpaceOnUse" xlink:href="#id0" x1="10995.47" y1="8573.16" x2="28776.9" y2="11670">
  </linearGradient>
  <linearGradient id="id56" gradientUnits="userSpaceOnUse" xlink:href="#id0" x1="11782.39" y1="11258.84" x2="29563.82" y2="14355.69">
  </linearGradient>
  <linearGradient id="id57" gradientUnits="userSpaceOnUse" xlink:href="#id0" x1="10937.07" y1="8373.83" x2="28718.5" y2="11470.67">
  </linearGradient>
  <linearGradient id="id58" gradientUnits="userSpaceOnUse" xlink:href="#id0" x1="10878.55" y1="8174.1" x2="28660.22" y2="11270.99">
  </linearGradient>
  <linearGradient id="id59" gradientUnits="userSpaceOnUse" xlink:href="#id0" x1="11227.75" y1="9365.88" x2="29009.17" y2="12462.73">
  </linearGradient>
  <linearGradient id="id60" gradientUnits="userSpaceOnUse" xlink:href="#id0" x1="11886.79" y1="11615.17" x2="29668.22" y2="14712.01">
  </linearGradient>
  <linearGradient id="id61" gradientUnits="userSpaceOnUse" xlink:href="#id0" x1="11456.37" y1="10146.16" x2="29237.8" y2="13243">
  </linearGradient>
  <linearGradient id="id62" gradientUnits="userSpaceOnUse" xlink:href="#id0" x1="11053.77" y1="8772.11" x2="28835.2" y2="11868.96">
  </linearGradient>
  <linearGradient id="id63" gradientUnits="userSpaceOnUse" xlink:href="#id0" x1="11342.71" y1="9758.26" x2="29124.14" y2="12855.11">
  </linearGradient>
 </defs>
 <g id="Слой_x0020_1">
  <metadata id="CorelCorpID_0Corel-Layer"/>
  <g id="элемент.cdr">
   <path class="fil0 str0" d="M29573.44 12577.98c-2319.63,-1673.8 -3455.32,-3794.02 -3999.02,-5649.67 -699.05,-2385.82 -419.52,-4334.3 -419.52,-4334.3 -351.9,-19.01 -687.03,23.82 -1010.57,118.61 -3149.78,922.9 -5201.88,6772.05 -10927.73,8449.73 -587.28,172.08 -1213.22,300.28 -1882.95,374.73 669.74,-74.45 1295.68,-202.65 1882.95,-374.73 5725.86,-1677.69 7777.96,-7526.83 10927.73,-8449.73 323.55,-94.8 658.68,-137.61 1010.57,-118.61 0,0 -279.54,1948.49 419.52,4334.3 543.71,1855.66 1679.4,3975.87 3999.02,5649.67z"/>
   <path class="fil1 str0" d="M11333.52 11537.02c711.59,-69.37 1373.05,-200.72 1990.89,-381.76 5438.02,-1593.35 7498.39,-7035.68 10638.32,-7955.69 341.87,-100.17 696.53,-146.71 1069.73,-128.9 0,0 -205.85,1717.33 422.26,3860.99 539.16,1840.14 1692.79,3994.42 4118.58,5646.26 -2425.81,-1651.85 -3579.43,-3806.13 -4118.58,-5646.26 -628.1,-2143.67 -422.26,-3860.99 -422.26,-3860.99 -373.21,-17.82 -727.87,28.73 -1069.73,128.9 -3139.94,920.01 -5200.31,6362.35 -10638.32,7955.69 -617.86,181.04 -1279.31,312.38 -1990.89,381.76z"/>
   <path class="fil2 str0" d="M11333.52 11537.02c755.49,-62.68 1453.67,-196.8 2102.85,-387.02 5149.77,-1508.89 7215.94,-6547.58 10339.13,-7462.69 361.77,-106 737.71,-156.67 1134.28,-140.15 0,0 -140.62,1490.13 416.44,3391.29 532.84,1818.55 1703.98,4013.18 4247.08,5639.47 -2543.12,-1626.29 -3714.25,-3820.93 -4247.08,-5639.47 -557.05,-1901.18 -416.44,-3391.29 -416.44,-3391.29 -396.58,-16.52 -772.52,34.15 -1134.28,140.15 -3123.2,915.11 -5189.36,5953.81 -10339.13,7462.69 -649.19,190.22 -1347.37,324.33 -2102.85,387.02z"/>
   <path class="fil3 str0" d="M11333.52 11537.02c801.77,-54.2 1538.13,-190.68 2219.6,-390.37 4860.98,-1424.28 6929.66,-6062.49 10028.65,-6970.5 383.66,-112.42 783.11,-167.67 1205.62,-152.59 0,0 -84.64,1268 401.32,2926.52 524.06,1788.58 1711.66,4031.35 4384.59,5627.84 -2672.94,-1596.5 -3860.54,-3839.26 -4384.59,-5627.84 -485.95,-1658.53 -401.32,-2926.52 -401.32,-2926.52 -422.53,-15.09 -821.97,40.18 -1205.62,152.59 -3098.99,908.01 -5167.68,5546.24 -10028.65,6970.5 -681.48,199.68 -1417.84,336.17 -2219.6,390.37z"/>
   <path class="fil4 str0" d="M11333.52 11537.02c850.8,-43.63 1626.97,-182.13 2341.89,-391.61 4571.63,-1339.5 6639.19,-5581.18 9704.69,-6479.37 407.76,-119.48 833.18,-179.78 1284.52,-166.29 0,0 -38.59,1051.97 376.23,2467.7 511.96,1747.27 1714.49,4048.65 4532.45,5610.47 -2817.97,-1561.83 -4020.5,-3863.21 -4532.45,-5610.47 -414.82,-1415.75 -376.23,-2467.7 -376.23,-2467.7 -451.35,-13.5 -876.77,46.81 -1284.52,166.29 -3065.51,898.2 -5133.07,5139.88 -9704.69,6479.37 -714.94,209.48 -1491.1,347.98 -2341.89,391.61z"/>
   <path class="fil5 str0" d="M11333.52 11537.02c903.27,-30.61 1721.35,-170.73 2471.3,-390.48 4281.23,-1254.41 6343.04,-5103.43 9364.73,-5988.79 434.55,-127.33 888.95,-193.35 1372.68,-181.6 0,0 -3.41,844.3 340.57,2018.21 495.11,1689.79 1709.91,4062.59 4690.5,5583.56 -2980.6,-1520.98 -4195.41,-3893.78 -4690.5,-5583.56 -343.97,-1173.93 -340.57,-2018.21 -340.57,-2018.21 -483.74,-11.76 -938.14,54.27 -1372.68,181.6 -3021.69,885.36 -5083.5,4734.39 -9364.73,5988.79 -749.96,219.74 -1568.04,359.86 -2471.3,390.48z"/>
   <path class="fil6 str0" d="M11333.52 11537.02c959.54,-14.8 1821.76,-156.19 2608.54,-386.73 3989.71,-1169 6040,-4629.92 9005.61,-5498.85 464.53,-136.11 951.49,-208.62 1471.89,-198.81 0,0 20.58,646.71 294.18,1580.45 471.56,1609.41 1694.72,4071.57 4859.56,5544.84 -3164.86,-1473.28 -4388.01,-3935.43 -4859.56,-5544.84 -273.6,-933.75 -294.18,-1580.45 -294.18,-1580.45 -520.42,-9.82 -1007.37,62.7 -1471.89,198.81 -2965.62,868.93 -5015.91,4329.86 -9005.61,5498.85 -786.79,230.53 -1649.01,371.92 -2608.54,386.73z"/>
   <path class="fil7 str0" d="M11333.52 11537.02c1020.58,4.36 1929.8,-138.05 2755.87,-380.1 3696.71,-1083.14 5728.33,-4161.3 8623.38,-5009.56 498.27,-145.99 1022.1,-225.93 1584.4,-218.32 0,0 32.96,463.15 237.61,1161.59 438.24,1495.7 1663.73,4070.48 5038.52,5487.29 -3374.81,-1416.81 -4600.29,-3991.6 -5038.52,-5487.29 -204.65,-698.45 -237.61,-1161.59 -237.61,-1161.59 -562.32,-7.61 -1086.14,72.33 -1584.4,218.32 -2895.06,848.27 -4926.68,3926.43 -8623.38,5009.56 -826.08,242.05 -1735.3,384.46 -2755.87,380.1z"/>
   <path class="fil8 str0" d="M11333.52 11537.02c1087.35,27.56 2046.95,-115.72 2915.42,-370.19 3401.2,-996.56 5404.95,-3698.18 8211.96,-4520.64 536.73,-157.26 1102.77,-245.83 1713.59,-240.66 0,0 34.16,298.09 172.72,770.95 390.34,1332.22 1609.12,4051.76 5226.09,5401.44 -3616.98,-1349.69 -4835.76,-4069.23 -5226.09,-5401.44 -138.55,-472.87 -172.72,-770.95 -172.72,-770.95 -610.83,-5.17 -1176.88,83.4 -1713.59,240.66 -2807.02,822.47 -4810.77,3524.09 -8211.96,4520.64 -868.48,254.46 -1828.08,397.75 -2915.42,370.19z"/>
   <path class="fil9 str0" d="M11333.52 11537.02c1161.46,55.68 2175.79,-88.63 3091.05,-356.81 3102.44,-909.02 5066.57,-3241.18 7764.44,-4031.66 580.79,-170.17 1195.58,-268.89 1863.09,-266.62 0,0 25.81,158.51 103.96,425.22 320.15,1092.64 1518.43,4001.46 5417.24,5270.77 -3898.82,-1269.32 -5097.1,-4178.14 -5417.24,-5270.77 -78.15,-266.72 -103.96,-425.22 -103.96,-425.22 -667.52,-2.28 -1282.31,96.45 -1863.09,266.62 -2697.88,790.49 -4662.01,3122.65 -7764.44,4031.66 -915.27,268.17 -1929.6,412.48 -3091.05,356.81z"/>
   <path class="fil10 str0" d="M11333.52 11537.02c1244.94,89.92 2319.48,-56.01 3287.54,-339.66 1860.15,-545.03 3327.09,-1598.51 4854.23,-2464.25 770.45,-436.74 1556.14,-825.69 2415.35,-1077.45 632.07,-185.19 1303.92,-296.12 2038.78,-297.24 0,0 11.81,54.54 40.63,152.86 214.56,732.29 1371.25,3894.47 5603.25,5066.64 -4232.01,-1172.17 -5388.7,-4334.36 -5603.25,-5066.64 -28.81,-98.34 -40.63,-152.86 -40.63,-152.86 -734.87,1.12 -1406.72,112.05 -2038.78,297.24 -859.22,251.76 -1644.91,640.72 -2415.35,1077.45 -1527.14,865.75 -2994.08,1919.23 -4854.23,2464.25 -968.07,283.65 -2042.61,429.58 -3287.54,339.66z"/>
   <path class="fil11 str0" d="M11333.52 11537.02c1340.92,131.91 2482.92,-17.11 3512.43,-318.77 2486.98,-728.69 4317.65,-2347.98 6710.68,-3049.15 693.11,-203.08 1433.37,-329.13 2250.4,-334.27 0,0 0.63,2.32 1.96,6.83 51.37,175.34 1133.44,3683.4 5764.31,4736.26 -4630.88,-1052.87 -5712.95,-4560.93 -5764.31,-4736.26 -1.33,-4.52 -1.96,-6.83 -1.96,-6.83 -817.04,5.13 -1557.3,131.19 -2250.4,334.27 -2393.03,701.17 -4223.7,2320.47 -6710.68,3049.15 -1029.52,301.65 -2171.52,450.67 -3512.43,318.77z"/>
   <path class="fil12 str0" d="M11333.52 11537.02c1454.16,184.15 2673.43,28.89 3777.58,-294.64 2162.35,-633.58 3883.24,-1912.4 6062.35,-2550.89 767.12,-224.77 1590.99,-370.16 2510.9,-380.18 0,0 1188.92,3436.31 5888.95,4266.61 -4700.04,-830.3 -5888.96,-4266.6 -5888.95,-4266.61 -919.93,10.01 -1743.79,155.42 -2510.9,380.18 -2179.12,638.49 -3900.01,1917.32 -6062.35,2550.89 -1104.16,323.52 -2323.43,478.79 -3777.58,294.64z"/>
   <path class="fil13 str0" d="M11333.52 11537.02c1593.53,250.63 2904.68,82.39 4105.28,-269.4 1814.52,-531.66 3376.54,-1482.5 5279.27,-2040.01 860.09,-252.01 1789.78,-423.63 2843.89,-439.89 0,0 1361.57,3209.51 6011.34,3790.2 -4649.78,-580.7 -6011.34,-3790.2 -6011.34,-3790.2 -1054.12,16.26 -1983.81,187.89 -2843.89,439.89 -1902.74,557.51 -3464.75,1508.36 -5279.27,2040.01 -1200.61,351.78 -2511.76,520.03 -4105.28,269.4z"/>
   <path class="fil14 str0" d="M11333.52 11537.02c1777.24,338.71 3204.06,141.89 4541.34,-249.95 1418.91,-415.75 2737.03,-1050.99 4265.98,-1498.98 984.36,-288.42 2056.11,-499.22 3298.44,-523.88 0,0 1534.51,2982.62 6134.02,3313.71 -4599.53,-331.1 -6134.03,-3313.71 -6134.03,-3313.71 -1242.33,24.66 -2314.07,235.46 -3298.43,523.88 -1528.96,447.99 -2847.07,1083.25 -4265.98,1498.98 -1337.29,391.83 -2764.11,588.65 -4541.34,249.95z"/>
   <path class="fil15 str0" d="M11333.52 11537.02c2061.31,467.99 3654.61,195.08 5227.24,-265.72 891.59,-261.24 1776.54,-582.83 2736.37,-864.06 1177.18,-344.92 2466.97,-629.07 4019.77,-666.62 0,0 1706.85,2755.89 6256.4,2837.3 -4549.56,-81.42 -6256.41,-2837.29 -6256.4,-2837.3 -1552.81,37.54 -2842.6,321.7 -4019.77,666.62 -959.84,281.23 -1844.79,602.84 -2736.37,864.06 -1572.64,460.79 -3165.94,733.7 -5227.24,265.72z"/>
   <path class="fil16 str0" d="M11333.52 11537.02c4449.35,1187.6 6747.3,-1174.91 11860.7,-1319.9 0,0 1879.79,2528.99 6379.08,2360.8 -4499.3,168.19 -6379.09,-2360.8 -6379.09,-2360.8 -5113.4,144.98 -7411.34,2507.5 -11860.69,1319.9z"/>
   <path class="fil17 str0" d="M11333.52 11537.02c4235.49,1316.51 6562.99,-675.65 11738.22,-843.81 0,0 2052.53,2302.51 6501.56,1884.71 -4449.04,417.79 -6501.57,-1884.71 -6501.56,-1884.71 -5175.24,168.15 -7502.74,2160.33 -11738.22,843.81z"/>
   <path class="fil18 str0" d="M11333.52 11537.02c4021.63,1445.42 6379.05,-176.16 11615.54,-367.32 0,0 2225.47,2075.62 6624.24,1408.22 -4398.78,667.39 -6624.25,-1408.22 -6624.25,-1408.22 -5236.49,191.15 -7593.91,1812.74 -11615.53,367.32z"/>
   <path class="fil19 str0" d="M11333.52 11537.02c3807.76,1574.34 6194.81,323.4 11493.15,109.08 0,0 2397.82,1848.91 6746.63,931.82 -4348.82,917.08 -6746.64,-931.82 -6746.63,-931.82 -5298.35,214.32 -7685.4,1465.27 -11493.15,-109.08z"/>
   <path class="fil20 str0" d="M11333.52 11537.02c3594.19,1703.17 6010.88,822.89 11370.48,585.57 0,0 2570.75,1622.02 6869.3,455.33 -4298.56,1166.68 -6869.31,-455.33 -6869.3,-455.33 -5359.62,237.31 -7776.3,1117.6 -11370.48,-585.57z"/>
   <path class="fil21 str0" d="M11333.52 11537.02c3380.32,1832.08 5826.56,1322.15 11248.09,1061.98 0,0 2541.33,1292.44 6519.75,126.74 155.15,-45.45 312.49,-94.63 471.94,-147.82 -159.46,53.2 -316.8,102.38 -471.94,147.82 -3978.44,1165.7 -6519.76,-126.74 -6519.76,-126.74 -5421.53,260.17 -7867.78,770.09 -11248.08,-1061.98z"/>
   <path class="fil22 str0" d="M11333.52 11537.02c3166.46,1961 5642.61,1821.63 11125.69,1538.38 0,0 2376.2,952.28 5927.06,-88.14 382.54,-112.08 778.72,-247.29 1187.03,-409.34 -408.32,162.07 -804.5,297.27 -1187.03,409.34 -3550.87,1040.42 -5927.07,88.14 -5927.07,88.14 -5483.08,283.25 -7959.23,422.61 -11125.68,-1538.38z"/>
   <path class="fil23 str0" d="M11333.52 11537.02c2952.68,2090.22 5458.38,2321.21 11003.02,2014.87 0,0 2182.66,665.4 5342.45,-260.44 599.04,-175.52 1233.21,-408.22 1894.31,-713.53 -661.1,305.33 -1295.27,538.02 -1894.31,713.53 -3159.81,925.83 -5342.46,260.44 -5342.45,260.44 -5544.65,306.33 -8050.35,75.34 -11003.02,-2014.87z"/>
   <path class="fil24 str0" d="M11333.52 11537.02c2738.82,2219.13 5274.45,2820.68 10880.63,2491.27 0,0 1963.76,430.42 4758.28,-388.39 806.79,-236.4 1682.83,-576.9 2600.87,-1061.98 -918.04,485.1 -1794.09,825.6 -2600.87,1061.98 -2794.53,818.8 -4758.29,388.4 -4758.28,388.39 -5606.2,329.4 -8141.83,-272.15 -10880.63,-2491.27z"/>
   <path class="fil25 str0" d="M11333.52 11537.02c2524.96,2348.04 5090.41,3319.86 10757.95,2967.77 0,0 1724.31,245.05 4169.47,-471.4 1005.47,-294.6 2132.85,-751.78 3312.36,-1455.47 -1179.52,703.7 -2306.89,1160.88 -3312.36,1455.47 -2445.17,716.44 -4169.47,471.4 -4169.47,471.4 -5667.55,352.08 -8233.01,-619.74 -10757.95,-2967.77z"/>
   <path class="fil26 str0" d="M11333.52 11537.02c2311.09,2476.96 4906.18,3819.43 10635.56,3444.17 0,0 1469.79,106.46 3572.8,-509.74 1191.3,-349.05 2585.79,-929.98 4031.42,-1893.53 -1445.64,963.57 -2840.13,1544.49 -4031.42,1893.53 -2103.02,616.19 -3572.81,509.75 -3572.8,509.74 -5729.39,375.26 -8324.48,-967.22 -10635.56,-3444.17z"/>
   <path class="fil27 str0" d="M11333.52 11537.02c2097.23,2605.87 4722.23,4318.91 10512.79,3920.35 0,0 1207.22,11.08 2969.64,-505.33 1356.07,-397.33 3040.85,-1106.92 4757.35,-2374.12 -1716.5,1267.22 -3401.28,1976.8 -4757.35,2374.12 -1762.43,516.4 -2969.64,505.33 -2969.64,505.33 -5790.57,398.56 -8415.57,-1314.49 -10512.79,-3920.35z"/>
   <path class="fil28 str0" d="M11333.52 11537.02c1883.65,2734.69 4538,4818.48 10390.4,4396.76 0,0 943.54,-45.87 2363.16,-461.83 1485.85,-435.36 3493.25,-1276.11 5486.22,-2894.03 -1992.97,1617.93 -4000.37,2458.69 -5486.22,2894.03 -1419.63,415.96 -2363.16,461.83 -2363.16,461.83 -5852.41,421.72 -8506.76,-1662.07 -10390.4,-4396.76z"/>
   <path class="fil29 str0" d="M11333.52 11537.02c1669.78,2863.61 4354.07,5317.97 10267.73,4873.25 0,0 688.54,-69.92 1765.36,-385.44 1558.83,-456.75 3931.35,-1428.1 6206.69,-3446.91 -2275.35,2018.83 -4647.87,2990.18 -6206.69,3446.91 -1076.83,315.51 -1765.38,385.44 -1765.36,385.44 -5913.67,444.71 -8597.96,-2009.65 -10267.73,-4873.25z"/>
   <path class="fil30 str0" d="M11333.52 11537.02c1455.92,2992.53 4169.74,5817.23 10145.04,5349.74 0,0 453.37,-68.11 1195.7,-285.63 1543.24,-452.17 4335.35,-1549.91 6899.04,-4023.21 -2563.69,2473.31 -5355.8,3571.05 -6899.04,4023.21 -742.34,217.51 -1195.7,285.63 -1195.7,285.63 -5975.31,467.48 -8689.13,-2357.22 -10145.04,-5349.74z"/>
   <path class="fil31 str0" d="M11333.52 11537.02c1242.06,3121.43 3985.8,6316.72 10022.65,5826.14 0,0 251.13,-49 684.23,-175.91 1394.24,-408.52 4674.29,-1624.08 7532.9,-4609.33 -2858.61,2985.26 -6138.66,4200.83 -7532.9,4609.33 -433.11,126.9 -684.23,175.91 -684.23,175.91 -6036.86,490.57 -8780.61,-2704.71 -10022.65,-5826.14z"/>
   <path class="fil32 str0" d="M287.74 5445.22c7.23,24.92 14.49,49.84 21.79,74.74 144.12,491.87 300.05,981.9 486.71,1467.16 3315.15,8497.34 12146.37,12770.51 20559.85,10376.28 -8413.49,2394.22 -17244.71,-1878.94 -20559.85,-10376.28 -186.67,-485.27 -342.6,-975.3 -486.71,-1467.16 -7.3,-24.91 -14.56,-49.83 -21.79,-74.74z"/>
   <path class="fil33 str0" d="M21356.21 17363.23c-4020.3,1104.64 -8023.7,665.79 -11472.13,-949.59 -353.65,-168.44 -702.64,-345.64 -1041.86,-540.85 -1135.52,-652.97 -2172.83,-1445.68 -3130.47,-2286.3 -633.57,-550.51 -1231.95,-1144.62 -1789.03,-1781.77 -32.91,-37.43 -65.62,-75.27 -98.32,-113.11 -29.81,-34.31 -59.4,-69.02 -89,-103.74 -1158.67,-1371.56 -2158.59,-2938.28 -2904.71,-4670.84 -168.88,-392.41 -312.01,-790.01 -447.6,-1186.45 -32.26,-95.14 -64.15,-190.05 -95.54,-285.44 31.41,95.4 63.29,190.31 95.54,285.44 135.6,396.45 278.73,794.05 447.6,1186.45 746.13,1732.56 1746.05,3299.29 2904.71,4670.84 29.61,34.73 59.2,69.44 89,103.74 32.72,37.84 65.42,75.68 98.32,113.11 557.1,637.16 1155.47,1231.27 1789.03,1781.77 957.65,840.63 1994.97,1633.34 3130.47,2286.3 339.23,195.22 688.22,372.42 1041.86,540.85 3448.44,1615.39 7451.85,2054.24 11472.13,949.59z"/>
   <path class="fil34 str0" d="M21356.21 17363.23c-4087.45,1083.96 -8048.79,553.43 -11423.64,-1112.44 -347.49,-176.3 -691.33,-358.37 -1021.49,-563.29 -1125.88,-698.17 -2120.38,-1539.41 -3046.31,-2351.99 -639.31,-549.83 -1244.13,-1137.02 -1808.58,-1761.93 -33.41,-36.95 -66.51,-73.99 -99.99,-111.27 -30.2,-33.52 -60.47,-67.36 -90.56,-101.59 -1173.59,-1336.93 -2208.99,-2858.95 -3000.3,-4513.71 -178.94,-374.32 -330.8,-753.56 -475.41,-1130.55 -34.93,-90.31 -68.7,-180.97 -102.38,-271.32 33.69,90.36 67.46,181.02 102.38,271.32 144.62,377 296.48,756.24 475.41,1130.55 791.32,1654.77 1826.72,3176.78 3000.3,4513.71 30.1,34.24 60.37,68.08 90.56,101.59 33.49,37.28 66.59,74.33 99.99,111.27 564.47,624.92 1169.28,1212.1 1808.58,1761.93 925.94,812.59 1920.44,1653.83 3046.31,2351.99 330.17,204.92 674.01,387 1021.49,563.29 3374.87,1665.87 7336.2,2196.41 11423.64,1112.44z"/>
   <path class="fil35 str0" d="M21356.21 17363.23c-4154.82,1063.69 -8073.87,441.05 -11375.35,-1274.89 -341.13,-184.55 -679.71,-372.2 -1000.63,-586.22 -1116.53,-744.29 -2068.51,-1632.96 -2962.43,-2417.59 -644.78,-549.25 -1256.31,-1129.41 -1827.87,-1742.15 -34.17,-36.4 -67.66,-72.65 -101.54,-109.14 -31.06,-33.27 -61.65,-66.01 -92.5,-99.68 -1185.99,-1304.37 -2258.84,-2778.77 -3096,-4356.86 -188.45,-355.4 -348.92,-716.98 -503.51,-1074.57 -37.02,-85.67 -72.78,-171.37 -108.83,-256.99 36.06,85.63 71.82,171.32 108.83,256.99 154.6,357.59 315.07,719.17 503.51,1074.57 837.17,1578.1 1910.02,3052.5 3096,4356.86 30.86,33.68 61.45,66.41 92.5,99.68 33.89,36.49 67.38,72.75 101.54,109.14 571.57,612.74 1183.1,1192.91 1827.87,1742.15 893.93,784.63 1845.92,1673.31 2962.43,2417.59 320.93,214.03 659.51,401.68 1000.63,586.22 3301.49,1715.95 7220.54,2338.59 11375.35,1274.89z"/>
   <path class="fil36 str0" d="M21356.21 17363.23c-4221.89,1043.32 -8099.25,328.77 -11327.05,-1437.34 -334.78,-192.82 -668.11,-386.04 -980.07,-609.07 -1107.43,-791.34 -2016.35,-1726.6 -2878.27,-2483.28 -650.53,-548.56 -1267.03,-1123.24 -1847.43,-1722.3 -34.57,-35.6 -68.55,-71.37 -103.19,-107.3 -31.46,-32.48 -62.74,-64.35 -93.7,-97.32 -1198.39,-1271.81 -2308.57,-2698.27 -3191.68,-4200.02 -198.42,-337.01 -367.41,-680.62 -531.6,-1018.58 -39.39,-80.94 -77.53,-161.91 -115.67,-242.88 38.15,80.98 76.29,161.95 115.67,242.88 164.2,337.97 333.19,681.58 531.6,1018.58 883.12,1501.75 1993.3,2928.22 3191.68,4200.02 30.97,32.98 62.25,64.85 93.7,97.32 34.66,35.93 68.63,71.71 103.19,107.3 580.41,599.06 1196.91,1173.74 1847.43,1722.3 861.93,756.69 1770.85,1691.95 2878.27,2483.28 311.97,223.04 645.3,416.26 980.07,609.07 3227.81,1766.12 7105.17,2480.67 11327.05,1437.34z"/>
   <path class="fil37 str0" d="M21356.21 17363.23c-4289.05,1022.64 -8124.35,216.4 -11278.86,-1600.11 -328.62,-200.67 -656.28,-400.26 -959.1,-631.68 -1098.24,-839.1 -1964.49,-1820.16 -2794.39,-2548.89 -655.93,-547.66 -1279.04,-1116.02 -1866.71,-1702.52 -35.35,-35.04 -69.73,-70.03 -105.06,-105.07 -31.95,-32.01 -63.99,-63.32 -95.35,-95.49 -1210.5,-1239.35 -2357.18,-2617.12 -3287.29,-4042.88 -207.7,-318.48 -385.6,-644.35 -559.49,-962.98 -41.76,-76.21 -81.9,-152.23 -122.41,-228.47 40.52,76.25 80.66,152.26 122.41,228.47 173.91,318.64 351.8,644.5 559.49,962.98 930.12,1425.77 2076.8,2803.54 3287.29,4042.88 31.37,32.18 63.41,63.49 95.35,95.49 35.34,35.04 69.73,70.04 105.06,105.07 587.69,586.5 1210.8,1154.87 1866.71,1702.52 829.91,728.74 1696.16,1709.79 2794.39,2548.89 302.84,231.43 630.49,431.02 959.1,631.68 3154.53,1816.51 6989.82,2622.76 11278.86,1600.11z"/>
   <path class="fil38 str0" d="M21356.21 17363.23c-4356.42,1002.36 -8149.72,104.11 -11230.56,-1762.56 -322.26,-208.92 -644.56,-414.8 -938.55,-654.53 -1088.82,-888.26 -1912.03,-1913.88 -2710.22,-2614.57 -661.67,-546.99 -1290.93,-1108.51 -1886.27,-1682.67 -35.74,-34.25 -70.7,-69.07 -106.42,-103.33 -32.64,-31.13 -65.08,-61.63 -97.21,-93.25 -1222.12,-1207.36 -2405.12,-2535.82 -3382.89,-3885.74 -217.2,-299.56 -403.71,-607.76 -587.59,-907 -43.85,-71.57 -86.07,-142.93 -128.95,-214.44 42.9,71.52 85.11,142.88 128.95,214.44 183.89,299.24 370.4,607.45 587.59,907 977.78,1349.93 2160.78,2678.38 3382.89,3885.74 32.14,31.62 64.58,62.13 97.21,93.25 35.73,34.26 70.69,69.09 106.42,103.33 595.35,574.17 1224.61,1135.69 1886.27,1682.67 798.2,700.7 1621.41,1726.32 2710.22,2614.57 294,239.74 616.3,445.62 938.55,654.53 3080.85,1866.68 6874.15,2764.93 11230.56,1762.56z"/>
   <path class="fil39 str0" d="M21356.21 17363.23c-4423.59,981.68 -8174.81,-8.25 -11182.27,-1925.02 -315.91,-217.17 -632.64,-429.72 -917.68,-677.45 -1079.89,-937.97 -1860.26,-2007.75 -2626.55,-2679.78 -667.23,-546.71 -1302.63,-1101.39 -1905.64,-1663.2 -36.22,-33.78 -71.57,-67.81 -107.99,-101.2 -33.12,-30.65 -66.25,-60.29 -98.86,-91.42 -1233.65,-1175.06 -2452.31,-2454.07 -3478.58,-3728.9 -226.12,-280.8 -421.82,-571.19 -615.3,-850.8 -46.23,-66.82 -90.53,-133.54 -135.79,-200.32 45.27,66.79 89.58,133.51 135.79,200.32 193.49,279.62 389.2,570.01 615.3,850.8 1026.29,1274.84 2244.94,2553.85 3478.58,3728.9 32.62,31.14 65.75,60.78 98.86,91.42 36.43,33.4 71.78,67.43 107.99,101.2 603.02,561.82 1238.42,1116.5 1905.64,1663.2 766.3,672.04 1546.67,1741.82 2626.55,2679.78 285.05,247.74 601.78,460.28 917.68,677.45 3007.47,1916.78 6758.69,2906.71 11182.27,1925.02z"/>
   <path class="fil40 str0" d="M21356.21 17363.23c-4490.66,961.32 -8200.19,-120.54 -11133.7,-2087.56 -309.83,-225.34 -620.71,-444.65 -897.1,-700.29 -1070.26,-988.54 -1808.29,-2100.99 -2542.67,-2745.38 -672.7,-546.12 -1314.62,-1094.18 -1924.92,-1643.43 -37,-33.21 -72.74,-66.46 -109.93,-99.28 -33.52,-29.87 -67.04,-58.72 -100.43,-89.29 -1245.27,-1143.07 -2498.53,-2372.24 -3574.18,-3571.75 -235.04,-262.04 -439.93,-534.6 -643.2,-795.2 -48.5,-61.79 -95.18,-123.77 -142.53,-185.91 47.36,62.14 94.04,124.12 142.53,185.91 203.28,260.6 408.17,533.17 643.2,795.2 1075.66,1199.51 2328.92,2428.69 3574.18,3571.75 33.4,30.58 66.92,59.43 100.43,89.29 37.2,32.83 72.94,66.08 109.93,99.28 610.31,549.26 1252.23,1097.32 1924.92,1643.43 734.39,644.4 1472.42,1756.84 2542.67,2745.38 276.4,255.65 587.28,474.96 897.1,700.29 2933.52,1967.03 6643.05,3048.88 11133.7,2087.56z"/>
   <path class="fil41 str0" d="M21356.21 17363.23c-4558.11,940.73 -8225.29,-232.9 -11085.5,-2250.32 -303.39,-233.28 -608.5,-459.66 -876.44,-722.84 -1060.33,-1040.21 -1756.22,-2194.93 -2458.5,-2811.06 -678.45,-545.43 -1326.81,-1086.57 -1944.48,-1623.57 -37.4,-32.42 -73.63,-65.19 -111.59,-97.44 -33.92,-29.09 -68.12,-57.06 -101.92,-86.85 -1256.32,-1111.24 -2543.79,-2290.38 -3669.86,-3414.91 -243.67,-243.37 -457.76,-498.11 -671,-739.3 -50.98,-57.37 -99.74,-114.71 -149.37,-171.8 49.64,57.1 98.4,114.44 149.37,171.8 213.25,241.2 427.34,495.93 671,739.3 1126.08,1124.54 2413.56,2303.68 3669.86,3414.91 33.81,29.8 68.02,57.77 101.92,86.85 37.97,32.26 74.2,65.02 111.59,97.44 617.68,537.01 1266.04,1078.14 1944.48,1623.57 702.29,616.14 1398.18,1770.86 2458.5,2811.06 267.95,263.19 573.06,489.56 876.44,722.84 2860.22,2017.42 6527.4,3191.06 11085.5,2250.32z"/>
   <path class="fil42 str0" d="M21356.21 17363.23c-4625.19,920.36 -8250.66,-345.19 -11037.21,-2412.78 -297.02,-241.53 -596.27,-475.68 -855.88,-745.67 -1049.62,-1092.44 -1703.68,-2288.36 -2374.33,-2876.76 -683.92,-544.84 -1338.7,-1079.04 -1964.04,-1603.71 -37.89,-31.94 -74.51,-63.92 -112.87,-95.39 -34.68,-28.51 -69.29,-55.7 -103.85,-84.93 -1267.46,-1079.73 -2587.92,-2208.85 -3765.47,-3257.76 -252.02,-224.79 -475.67,-461.92 -699.19,-683.62 -52.68,-52.5 -103.82,-105.11 -155.82,-157.47 52.01,52.36 103.16,104.98 155.82,157.47 223.54,221.71 447.18,458.84 699.19,683.62 1177.56,1048.92 2498.03,2178.04 3765.47,3257.76 34.57,29.23 69.18,56.43 103.85,84.93 38.37,31.47 74.99,63.45 112.87,95.39 625.35,524.68 1280.13,1058.88 1964.04,1603.71 670.66,588.41 1324.72,1784.32 2374.33,2876.76 259.62,269.99 558.87,504.15 855.88,745.67 2786.56,2067.59 6412.03,3333.15 11037.21,2412.78z"/>
   <path class="fil43 str0" d="M21356.21 17363.23c-4692.64,899.77 -8275.85,-457.87 -10988.91,-2575.24 -290.68,-249.78 -583.68,-491.48 -835.02,-768.59 -1039.19,-1145.61 -1651.82,-2381.91 -2290.46,-2942.36 -689.67,-544.16 -1350.97,-1071.74 -1983.32,-1583.94 -38.66,-31.39 -75.68,-62.57 -114.82,-93.49 -35.37,-27.62 -70.46,-54.34 -105.13,-82.85 -1278.5,-1047.92 -2631.45,-2127.5 -3861.15,-3100.93 -260.56,-205.81 -493.69,-425.03 -727.19,-627.34 -55.06,-47.76 -108.57,-95.64 -162.66,-143.35 54.1,47.72 107.61,95.6 162.66,143.35 233.51,202.32 466.65,421.54 727.19,627.34 1229.71,973.43 2582.66,2053.01 3861.15,3100.93 34.68,28.52 69.77,55.23 105.13,82.85 39.15,30.92 76.17,62.11 114.82,93.49 632.36,512.2 1293.66,1039.78 1983.32,1583.94 638.65,560.45 1251.28,1796.76 2290.46,2942.36 251.35,277.11 544.35,518.82 835.02,768.59 2713.08,2117.38 6296.28,3475.02 10988.91,2575.24z"/>
   <path class="fil44 str0" d="M21356.21 17363.23c-4759.72,879.4 -8301.22,-570.15 -10940.62,-2737.69 -284.61,-257.95 -571.16,-507.6 -814.15,-791.52 -1027.71,-1199.43 -1599.95,-2475.47 -2206.59,-3007.97 -695.15,-543.57 -1363.16,-1064.14 -2002.89,-1564.08 -39.06,-30.59 -76.56,-61.3 -116.38,-91.34 -35.86,-27.15 -71.34,-53.08 -106.79,-81.03 -1289.06,-1016.58 -2673.82,-2046.47 -3956.75,-2943.78 -268.41,-187.7 -511.52,-388.54 -755,-571.43 -57.43,-43.03 -113.03,-86.27 -169.49,-129.25 56.47,42.99 112.07,86.22 169.49,129.25 243.49,182.9 486.6,383.74 755,571.43 1282.94,897.31 2667.71,1927.21 3956.75,2943.78 35.46,27.96 70.94,53.88 106.79,81.03 39.83,30.04 77.33,60.75 116.38,91.34 639.74,499.95 1307.76,1020.52 2002.89,1564.08 606.65,532.51 1178.89,1808.55 2206.59,3007.97 243,283.93 529.55,533.58 814.15,791.52 2639.42,2167.54 6180.91,3617.1 10940.62,2737.69z"/>
   <path class="fil45 str0" d="M21356.21 17363.23c-4826.79,859.05 -8326.31,-682.53 -10892.42,-2900.46 -278.16,-265.88 -558.26,-523.47 -793.5,-814.05 -1015.51,-1254.1 -1547.78,-2569.11 -2122.41,-3073.65 -700.9,-542.89 -1375.36,-1056.54 -2022.16,-1544.31 -39.84,-30.04 -77.74,-59.95 -118.05,-89.51 -36.63,-26.59 -72.71,-51.34 -108.64,-78.8 -1299.32,-985.33 -2715.23,-1966.42 -4052.35,-2786.64 -276.26,-169.6 -529.05,-352.12 -782.89,-515.84 -59.44,-38.07 -117.4,-76.58 -176.24,-114.83 58.85,38.26 116.82,76.76 176.24,114.83 253.85,163.72 506.64,346.25 782.89,515.84 1337.13,820.23 2753.04,1801.32 4052.35,2786.64 35.94,27.47 72.02,52.21 108.64,78.8 40.32,29.56 78.22,59.48 118.05,89.51 646.82,487.78 1321.27,1001.42 2022.16,1544.31 574.64,504.55 1106.91,1819.55 2122.41,3073.65 235.25,290.58 515.35,548.17 793.5,814.05 2566.12,2217.94 6065.64,3759.51 10892.42,2900.46z"/>
   <path class="fil46 str0" d="M21356.21 17363.23c-4894.24,838.44 -8351.69,-794.81 -10844.13,-3062.91 -271.8,-274.14 -545.26,-540.07 -772.64,-836.98 -1002.85,-1309.27 -1495.62,-2662.75 -2038.54,-3139.26 -706.56,-541.9 -1387.53,-1048.92 -2041.72,-1524.45 -40.24,-29.25 -78.62,-58.68 -119.7,-87.68 -37.03,-25.8 -73.51,-49.76 -110.12,-76.35 -1309.78,-954.69 -2755.76,-1887.62 -4148.04,-2629.8 -284.12,-151.49 -546.68,-316.02 -810.99,-459.85 -61.6,-33.75 -121.86,-67.2 -182.78,-100.81 60.93,33.62 121.19,67.07 182.78,100.81 264.32,143.84 526.88,308.36 810.99,459.85 1392.29,742.19 2838.27,1675.12 4148.04,2629.8 36.62,26.6 73.1,50.55 110.12,76.35 41.09,29 79.47,58.44 119.7,87.68 654.2,475.53 1335.17,982.55 2041.72,1524.45 542.93,476.52 1035.7,1830 2038.54,3139.26 227.39,296.92 500.85,562.85 772.64,836.98 2492.45,2268.11 5949.9,3901.36 10844.13,3062.91z"/>
   <path class="fil47 str0" d="M21356.21 17363.23c-4961.32,818.08 -8376.78,-907.17 -10795.55,-3225.45 -265.73,-282.32 -532.45,-556.26 -752.35,-859.74 -989.41,-1365 -1443.47,-2756.38 -1954.29,-3204.63 -712.12,-541.63 -1399.81,-1041.64 -2061.09,-1504.99 -41.01,-28.68 -79.88,-57.64 -121.56,-85.45 -37.51,-25.34 -74.47,-48.81 -111.77,-74.54 -1320.14,-923.73 -2795.9,-1809.6 -4243.73,-2472.95 -291.31,-133.24 -564.12,-279.29 -838.8,-403.96 -63.6,-28.77 -126.31,-57.81 -189.52,-86.38 63.22,28.57 125.93,57.61 189.52,86.38 274.69,124.68 547.5,270.73 838.8,403.96 1447.85,663.36 2923.6,1549.23 4243.73,2472.95 37.31,25.74 74.27,49.21 111.77,74.54 41.69,27.81 80.57,56.77 121.56,85.45 661.29,463.36 1348.98,963.37 2061.09,1504.99 510.83,448.26 964.89,1839.64 1954.29,3204.63 219.91,303.48 486.63,577.43 752.35,859.74 2418.78,2318.29 5834.24,4043.54 10795.55,3225.45z"/>
   <path class="fil48 str0" d="M21356.21 17363.23c-5028.49,797.41 -8402.16,-1019.46 -10747.26,-3387.91 -259.38,-290.56 -519.17,-572.93 -731.5,-882.66 -975.18,-1421.29 -1391.59,-2849.94 -1870.4,-3270.24 -717.87,-540.94 -1412,-1034.02 -2080.66,-1485.14 -41.39,-27.88 -80.77,-56.37 -122.92,-83.7 -38.2,-24.46 -75.85,-47.06 -113.63,-72.3 -1330.02,-893.26 -2835.43,-1732.78 -4339.34,-2315.81 -298.77,-115.91 -581.45,-243.27 -866.59,-348.05 -65.98,-24.06 -130.78,-48.45 -196.36,-72.28 65.59,23.83 130.4,48.23 196.36,72.28 285.15,104.79 567.84,232.14 866.59,348.05 1503.92,583.03 3009.33,1422.56 4339.34,2315.81 37.79,25.25 75.44,47.85 113.63,72.3 42.16,27.34 81.54,55.83 122.92,83.7 668.67,451.13 1362.8,944.2 2080.66,1485.14 478.82,420.31 895.22,1848.96 1870.4,3270.24 212.34,309.74 472.13,592.11 731.5,882.66 2345.11,2368.46 5718.78,4185.33 10747.26,3387.91z"/>
   <path class="fil49 str0" d="M21356.21 17363.23c-5095.85,777.12 -8427.25,-1131.83 -10699.06,-3550.67 -252.92,-298.5 -505.49,-589.38 -710.83,-905.19 -959.91,-1478.23 -1339.44,-2943.58 -1786.25,-3335.94 -723.34,-540.34 -1424.38,-1026.02 -2100.22,-1465.27 -41.88,-27.41 -81.65,-55.11 -124.49,-81.56 -38.68,-23.99 -76.73,-45.79 -115,-70.56 -1340.18,-862.71 -2875.23,-1656.89 -4435.2,-2158.58 -306.24,-98.6 -599.09,-207.17 -894.42,-292.15 -68.14,-19.72 -135.53,-38.99 -203.19,-58.17 67.67,19.19 135.06,38.46 203.19,58.17 295.34,84.99 588.19,193.55 894.42,292.15 1559.98,501.7 3095.04,1295.88 4435.2,2158.58 38.29,24.77 76.33,46.58 115,70.56 42.85,26.46 82.62,54.15 124.49,81.56 675.85,439.26 1376.89,924.94 2100.22,1465.27 446.82,392.36 826.34,1857.72 1786.25,3335.94 205.35,315.81 457.92,606.69 710.83,905.19 2271.83,2418.85 5603.22,4327.8 10699.06,3550.67z"/>
   <path class="fil50 str0" d="M21356.21 17363.23c-5162.92,756.76 -8452.63,-1244.12 -10650.77,-3713.13 -246.86,-306.67 -491.91,-606.13 -689.97,-928.12 -944.34,-1535.25 -1287.27,-3037.21 -1702.37,-3401.53 -729.09,-539.67 -1436.57,-1018.42 -2119.58,-1445.82 -42.57,-26.54 -82.74,-53.44 -126.35,-79.33 -39.08,-23.19 -77.81,-44.13 -116.56,-68.42 -1350.15,-832.55 -2914.56,-1582.48 -4530.53,-2001.52 -314.08,-81.49 -616.8,-171.37 -922.88,-236.39 -69.86,-14.84 -139.62,-29.37 -209.65,-43.83 70.04,14.46 139.8,29 209.65,43.83 306.09,65.03 608.81,154.9 922.88,236.39 1615.98,419.05 3180.39,1168.98 4530.53,2001.52 38.76,24.3 77.49,45.23 116.56,68.42 43.62,25.9 83.79,52.8 126.35,79.33 683.02,427.41 1390.5,906.16 2119.58,1445.82 415.11,364.32 758.03,1866.29 1702.37,3401.53 198.07,322 443.12,621.45 689.97,928.12 2198.15,2469.02 5487.86,4469.9 10650.77,3713.13z"/>
   <path class="fil51 str0" d="M21356.21 17363.23c-5230.38,736.17 -8477.71,-1356.48 -10602.48,-3875.58 -240.5,-314.93 -478.43,-623.2 -669.4,-950.96 -927.33,-1592.7 -1235.12,-3130.86 -1618.2,-3467.22 -734.57,-539.08 -1448.96,-1010.42 -2139.15,-1425.96 -42.97,-25.76 -83.62,-52.18 -127.91,-77.2 -39.57,-22.71 -78.78,-43.17 -118.14,-66.28 -1360,-803.09 -2954.02,-1509.71 -4626.21,-1844.68 -321.33,-64.57 -634.13,-135.35 -950.69,-180.48 -72.32,-10.42 -144.07,-20.01 -216.48,-29.73 72.43,9.73 144.18,19.32 216.48,29.73 316.57,45.13 629.37,115.92 950.69,180.48 1672.2,334.98 3266.22,1041.59 4626.21,1844.68 39.37,23.12 78.58,43.58 118.14,66.28 44.3,25.03 84.95,51.45 127.91,77.2 690.2,415.55 1404.6,886.89 2139.15,1425.96 383.1,336.37 690.88,1874.52 1618.2,3467.22 190.99,327.76 428.91,636.04 669.4,950.96 2124.78,2519.1 5372.11,4611.76 10602.48,3875.58z"/>
   <path class="fil52 str0" d="M21356.21 17363.23c-5297.45,715.8 -8503.1,-1468.76 -10554.18,-4038.03 -234.16,-323.18 -464.57,-640.06 -648.55,-973.89 -910.12,-1650.55 -1183.24,-3224.41 -1534.32,-3532.83 -740.32,-538.4 -1461.44,-1002.73 -2158.43,-1406.19 -43.74,-25.19 -84.79,-50.82 -129.58,-75.37 -40.25,-21.83 -79.86,-41.5 -119.98,-64.05 -1369.67,-773.02 -2993.58,-1437.25 -4721.9,-1687.83 -328.6,-47.66 -651.76,-99.26 -978.5,-124.6 -74.31,-5.46 -148.43,-10.3 -223.22,-15.3 74.8,5 148.92,9.85 223.22,15.3 326.75,25.34 649.91,76.94 978.5,124.6 1728.33,250.59 3352.24,914.82 4721.9,1687.83 40.14,22.56 79.74,42.23 119.98,64.05 44.8,24.55 85.85,50.19 129.58,75.37 697,403.47 1418.12,867.8 2158.43,1406.19 351.09,308.42 624.2,1882.29 1534.32,3532.83 183.99,333.84 414.4,650.72 648.55,973.89 2051.1,2569.27 5256.74,4753.83 10554.18,4038.03z"/>
   <path class="fil53 str0" d="M21356.21 17363.23c-5364.62,695.12 -8528.19,-1581.14 -10505.99,-4200.8 -227.69,-331.11 -450.31,-656.67 -627.88,-996.42 -891.38,-1708.5 -1131.08,-3318.05 -1450.16,-3598.52 -745.98,-537.41 -1473.82,-994.72 -2177.9,-1386.02 -44.23,-24.71 -85.76,-49.86 -131.32,-73.84 -40.65,-21.04 -80.94,-39.84 -121.55,-61.92 -1379.25,-743.64 -3033.89,-1366.24 -4817.5,-1530.69 -336.24,-30.95 -669.19,-63.55 -1006.6,-68.59 -76.19,-1.22 -152.98,-1.25 -229.76,-1.29 76.79,0.05 153.58,0.07 229.76,1.29 337.42,5.05 670.37,37.64 1006.6,68.59 1783.62,164.46 3438.26,787.06 4817.5,1530.69 40.62,22.08 80.91,40.88 121.55,61.92 45.57,23.98 87.1,49.14 131.32,73.84 704.1,391.31 1431.93,848.62 2177.9,1386.02 319.09,280.48 558.79,1890.03 1450.16,3598.52 177.58,339.76 400.2,665.31 627.88,996.42 1977.81,2619.67 5141.39,4895.93 10505.99,4200.8z"/>
   <path class="fil54 str0" d="M21356.21 17363.23c-5431.98,674.85 -8553.56,-1693.42 -10457.4,-4363.35 -221.72,-339.58 -436.45,-673.5 -607.31,-1019.26 -485.24,-982.67 -764.48,-1927.59 -966.24,-2616.21 -4.94,-16.87 -9.86,-33.58 -14.71,-50.15 -153.19,-522.83 -261.92,-889.09 -385.64,-997.67 -751.15,-536.91 -1485.9,-986.81 -2196.97,-1366.64 -44.91,-23.83 -86.84,-48.2 -133.08,-71.32 -41.42,-20.47 -81.91,-38.88 -123.21,-60.07 -1388.82,-714.28 -3074.28,-1295.56 -4913.1,-1373.55 -343.97,-14.56 -686.99,-28.05 -1034.4,-12.69 -78.57,3.52 -157.44,8.12 -236.6,12.82 79.17,-4.69 158.04,-9.3 236.6,-12.82 347.42,-15.36 690.44,-1.86 1034.4,12.69 1838.83,78 3524.29,659.28 4913.1,1373.55 41.31,21.2 81.8,39.6 123.21,60.07 46.25,23.12 88.18,47.5 133.08,71.32 711.09,379.83 1445.83,829.74 2196.97,1366.64 123.74,108.59 232.46,474.85 385.64,997.67 4.86,16.57 9.77,33.29 14.71,50.15 201.77,688.62 481.01,1633.55 966.24,2616.21 170.87,345.77 385.6,679.68 607.31,1019.26 1903.85,2669.94 5025.43,5038.2 10457.4,4363.35z"/>
   <path class="fil55 str0" d="M21356.21 17363.23c-5499.14,654.17 -8578.66,-1805.8 -10409.11,-4525.8 -215.37,-347.84 -422.29,-690.43 -586.46,-1042.19 -323.64,-692.82 -549.56,-1364.73 -719.3,-1944.04 -157.68,-538.17 -266.9,-996.41 -360.9,-1317.24 -71.38,-243.62 -134,-408.01 -202.4,-468.04 -757.01,-536.54 -1498.38,-979.12 -2216.63,-1347.1 -45.32,-23.04 -87.73,-46.93 -134.46,-69.56 -42.19,-19.92 -82.99,-37.23 -124.68,-57.63 -1398.57,-685.53 -3116,-1226.17 -5009.08,-1216.62 -351.8,1.51 -704.42,7.64 -1062.29,42.89 -80.66,8.16 -161.82,17.81 -243.35,27.24 81.54,-9.42 162.7,-19.08 243.35,-27.24 357.89,-35.24 710.51,-41.37 1062.29,-42.89 1893.09,-9.54 3610.52,531.1 5009.08,1216.62 41.7,20.41 82.5,37.71 124.68,57.63 46.74,22.63 89.16,46.53 134.46,69.56 718.26,367.99 1459.63,810.56 2216.63,1347.1 68.41,60.04 131.02,224.43 202.4,468.04 94.01,320.84 203.21,779.08 360.9,1317.24 169.75,579.31 395.68,1251.23 719.3,1944.04 164.18,351.76 371.1,694.35 586.46,1042.19 1830.46,2720.01 4909.98,5179.98 10409.11,4525.8z"/>
   <path class="fil56 str0" d="M21356.21 17363.23c-5566.22,633.8 -8604.04,-1918.07 -10360.82,-4688.25 -209.21,-355.71 -407.76,-707.14 -565.88,-1065.03 -251.11,-568.62 -439.46,-1121.93 -586.19,-1622.74 -240.02,-819.17 -368.76,-1497.89 -478.79,-1873.41 -45.51,-155.32 -87.83,-258.77 -133.47,-298.87 -762.47,-535.95 -1510.76,-971.12 -2236.19,-1327.24 -45.8,-22.56 -88.61,-45.66 -136.02,-67.43 -42.69,-19.43 -84.26,-36.18 -126.35,-55.79 -1407.94,-656.54 -3157.51,-1157.17 -5104.76,-1059.79 -359.53,17.91 -722.14,43.44 -1090.01,99.11 -83.13,12.58 -166.57,27.28 -250.18,41.35 83.63,-14.06 167.06,-28.76 250.18,-41.35 367.89,-55.66 730.49,-81.2 1090.01,-99.11 1947.26,-97.37 3696.83,403.25 5104.76,1059.79 42.1,19.62 83.67,36.36 126.35,55.79 47.42,21.78 90.24,44.87 136.02,67.43 725.44,356.13 1473.73,791.3 2236.19,1327.24 45.65,40.11 87.96,143.55 133.47,298.87 110.03,375.54 238.77,1054.25 478.79,1873.41 146.74,500.82 335.09,1054.13 586.19,1622.74 158.14,357.89 356.68,709.33 565.88,1065.03 1756.79,2770.18 4794.62,5322.06 10360.82,4688.25z"/>
   <path class="fil57 str0" d="M21356.21 17363.23c-5633.68,613.21 -8629.12,-2030.45 -10312.62,-4851.01 -202.85,-363.96 -393.22,-723.85 -544.93,-1087.66 -196.27,-470.34 -351.62,-929.47 -477.06,-1357.62 -310.31,-1059.09 -437.74,-1928.56 -549.24,-2309.09 -29.51,-100.74 -57.91,-167.21 -88.27,-193.9 -768.23,-535.27 -1523.15,-963.12 -2255.47,-1307.47 -46.48,-21.69 -89.87,-44.62 -137.97,-65.51 -43.08,-18.65 -85.04,-34.6 -127.91,-53.65 -1417.4,-627.89 -3200.08,-1088.55 -5200.08,-902.73 -367.92,34.15 -740.22,79.01 -1118.48,154.87 -84.92,17.14 -170.64,36.88 -256.63,55.68 86,-18.79 171.73,-38.53 256.63,-55.68 378.27,-75.85 750.57,-120.71 1118.48,-154.87 2000.01,-185.81 3782.7,274.84 5200.08,902.73 42.88,19.05 84.84,35 127.91,53.65 48.11,20.89 91.5,43.82 137.97,65.51 732.33,344.35 1487.25,772.2 2255.47,1307.47 30.38,26.7 58.76,93.17 88.27,193.9 111.5,380.54 238.92,1250.01 549.24,2309.09 125.45,428.16 280.8,887.29 477.06,1357.62 151.72,363.82 342.09,723.71 544.93,1087.66 1683.51,2820.57 4678.95,5464.23 10312.62,4851.01z"/>
   <path class="fil58 str0" d="M21356.21 17363.23c-5700.74,592.85 -8654.5,-2142.73 -10264.33,-5013.47 -196.49,-372.22 -378.68,-740.55 -524.37,-1110.49 -150.58,-382.43 -275.41,-757.01 -379.93,-1113.74 -375.38,-1281.16 -489.02,-2332.11 -593.87,-2689.94 -18.67,-63.72 -37.07,-105.45 -56.58,-122.63 -773.71,-534.67 -1535.55,-955.12 -2275.05,-1287.61 -46.96,-21.21 -90.75,-43.36 -139.53,-63.37 -43.57,-18.17 -85.93,-33.34 -129.56,-51.83 -1426.97,-599.52 -3243.13,-1020.44 -5295.68,-745.57 -376.04,50.32 -758.04,114.49 -1146.29,210.76 -87.39,21.58 -175.11,46.26 -263.47,69.8 88.38,-23.53 176.09,-48.22 263.47,-69.8 388.26,-96.26 770.26,-160.43 1146.29,-210.76 2052.57,-274.86 3868.73,146.06 5295.68,745.57 43.64,18.5 86,33.66 129.56,51.83 48.79,20.02 92.58,42.16 139.53,63.37 739.51,332.5 1501.35,752.94 2275.05,1287.61 19.52,17.19 37.92,58.92 56.58,122.63 104.85,357.84 218.48,1408.79 593.87,2689.94 104.53,356.74 229.36,731.32 379.93,1113.74 145.7,369.95 327.89,738.28 524.37,1110.49 1609.84,2870.75 4563.6,5606.32 10264.33,5013.47z"/>
   <path class="fil59 str0" d="M21356.21 17363.23c-5768.11,572.56 -8679.68,-2255.41 -10216.03,-5175.93 -190.15,-380.46 -363.87,-757.32 -503.51,-1133.41 -111.78,-300.94 -208.37,-596.79 -292.22,-882.97 -437.28,-1492.44 -528.31,-2721.76 -620.48,-3036.31 -11.06,-37.78 -22.14,-62.36 -33.82,-72.64 -779.45,-533.99 -1548.43,-945.62 -2294.61,-1267.75 -47.65,-20.34 -91.63,-42.09 -140.89,-61.62 -44.26,-17.3 -87.11,-31.99 -131.43,-49.61 -1436.5,-571.15 -3286.72,-952.16 -5391.37,-588.73 -384.14,66.48 -775.75,150.28 -1174,266.97 -89.47,26.22 -179.65,55.35 -270.3,83.91 90.66,-28.57 180.84,-57.69 270.3,-83.91 398.26,-116.69 789.87,-200.48 1174,-266.97 2104.66,-363.43 3954.88,17.58 5391.37,588.73 44.33,17.63 87.19,32.31 131.43,49.61 49.27,19.54 93.25,41.29 140.89,61.62 746.19,322.13 1515.17,733.77 2294.61,1267.75 11.69,10.29 22.76,34.87 33.82,72.64 92.17,314.56 183.19,1543.88 620.48,3036.31 83.86,286.19 180.45,582.04 292.22,882.97 139.65,376.09 313.37,752.96 503.51,1133.41 1536.36,2920.53 4447.93,5748.5 10216.03,5175.93z"/>
   <path class="fil60 str0" d="M21356.21 17363.23c-5835.28,551.89 -8705.06,-2367.7 -10167.45,-5338.46 -184.07,-388.64 -349.33,-774.04 -483.23,-1156.18 -77.64,-221.91 -147.43,-440.97 -210.26,-655.42 -497.8,-1698.97 -559.37,-3108.7 -634.15,-3363.92 -5.84,-19.91 -11.76,-32.78 -17.95,-38.26 -784.92,-533.4 -1560.6,-938.02 -2313.88,-1247.98 -48.33,-19.47 -92.8,-40.74 -142.85,-59.71 -44.63,-16.52 -87.88,-30.41 -132.98,-47.46 -1445.56,-544.31 -3330.81,-884.44 -5486.97,-431.59 -279.12,58.84 -562.46,128.1 -849.73,212.27 -116.75,34.21 -234.15,70.9 -352.16,110.3 -91.86,30.95 -184.32,65.1 -277.05,98.32 92.74,-33.23 185.2,-67.38 277.05,-98.32 118.01,-39.42 235.41,-76.09 352.16,-110.3 287.27,-84.17 570.63,-153.42 849.73,-212.27 2156.17,-452.85 4041.43,-112.71 5486.97,431.59 45.11,17.06 88.36,30.95 132.98,47.46 50.06,18.98 94.53,40.25 142.85,59.71 753.29,309.97 1528.97,714.59 2313.88,1247.98 6.2,5.49 12.11,18.36 17.95,38.26 74.78,255.23 136.35,1664.96 634.15,3363.92 62.84,214.45 132.63,433.51 210.26,655.42 133.91,382.15 299.17,767.55 483.23,1156.18 1462.4,2970.77 4332.18,5890.35 10167.45,5338.46z"/>
   <path class="fil61 str0" d="M21356.21 17363.23c-5902.35,531.52 -8730.15,-2480.06 -10119.25,-5501.23 -177.63,-396.57 -334.42,-790.5 -462.28,-1178.79 -47.66,-144.66 -92.13,-288.06 -133.64,-429.75 -557.25,-1901.87 -583.96,-3495.33 -637.3,-3677.37 -2.45,-8.37 -4.95,-13.74 -7.54,-16.08 -790.68,-532.73 -1572.7,-930.11 -2333.45,-1228.13 -48.82,-18.99 -93.68,-39.47 -144.41,-57.57 -45.12,-16.03 -89.14,-29.36 -134.55,-45.32 -1456.4,-513.88 -3375.55,-816.85 -5582.66,-274.75 -160.43,39.48 -322.38,82.84 -485.73,130.7 -245.03,71.8 -493.23,153.74 -744.26,247.85 -94.02,35.3 -188.48,74.4 -283.59,112.35 95.12,-37.96 189.58,-77.07 283.59,-112.35 251.04,-94.12 499.24,-176.06 744.26,-247.85 163.35,-47.86 325.31,-91.21 485.73,-130.7 2207.12,-542.09 4126.28,-239.12 5582.66,274.75 45.42,15.97 89.44,29.3 134.55,45.32 50.74,18.11 95.61,38.58 144.41,57.57 760.76,298.03 1542.79,695.41 2333.45,1228.13 2.6,2.35 5.09,7.72 7.54,16.08 53.34,182.05 80.04,1775.51 637.3,3677.37 41.52,141.7 85.99,285.1 133.64,429.75 127.87,388.29 284.66,782.23 462.28,1178.79 1389.11,3021.17 4216.92,6032.76 10119.25,5501.23z"/>
   <path class="fil62 str0" d="M21356.21 17363.23c-5969.8,510.94 -8755.53,-2592.34 -10070.96,-5663.69 -171.27,-404.82 -319.59,-807.29 -441.71,-1201.62 -20.9,-67.48 -41.14,-134.67 -60.72,-201.54 -616.31,-2103.42 -603.29,-3886.25 -631.78,-3983.47 -0.59,-2.02 -1.19,-3.31 -1.81,-3.89 -796.34,-531.74 -1584.89,-922.49 -2352.73,-1208.35 -49.5,-18.12 -94.85,-38.13 -146.07,-55.74 -45.9,-15.47 -90.23,-27.71 -136.11,-43.18 -1465.43,-488.04 -3421.18,-749.01 -5678.55,-117.52 -44.58,12.49 -89.26,25.29 -134.07,38.42 -367.16,107.58 -742.07,237.49 -1123.72,396.03 -96.2,39.63 -192.94,83.78 -290.43,126.46 97.49,-42.69 194.24,-86.84 290.43,-126.46 381.66,-158.55 756.57,-288.45 1123.72,-396.03 44.81,-13.13 89.5,-25.93 134.07,-38.42 2257.38,-631.48 4213.13,-370.51 5678.55,117.52 45.9,15.48 90.22,27.72 136.11,43.18 51.23,17.62 96.58,37.62 146.07,55.74 767.85,285.86 1556.4,676.62 2352.73,1208.35 0.63,0.59 1.22,1.88 1.81,3.89 28.49,97.23 15.46,1880.06 631.78,3983.47 19.6,66.88 39.84,134.07 60.72,201.54 122.13,394.34 270.45,796.8 441.71,1201.62 1315.44,3071.35 4101.17,6174.63 10070.96,5663.69z"/>
   <path class="fil63 str0" d="M21356.21 17363.23c-6036.88,490.57 -8780.63,-2704.72 -10022.67,-5826.14 -163.79,-409.47 -301.46,-817.01 -417.86,-1214.31 -1,-3.41 -1.99,-6.81 -2.98,-10.25 -662.69,-2292.72 -610.35,-4254.18 -610.35,-4254.18 -801.9,-531.47 -1597.17,-915.21 -2372.39,-1188.81 -49.98,-17.64 -95.73,-36.86 -147.72,-53.91 -46.21,-14.37 -91.31,-26.04 -137.68,-41.03 -1438.64,-440.39 -3362.21,-669.04 -5592.02,-15.7 -475.92,139.45 -965.77,319.08 -1467.82,545.36 -98.57,44.37 -197.6,93.56 -297.17,140.88 99.57,-47.33 198.6,-96.52 297.17,-140.88 502.05,-226.29 991.91,-405.91 1467.82,-545.36 2229.82,-653.34 4153.39,-424.69 5592.02,15.7 46.38,15 91.48,26.67 137.68,41.03 52,17.06 97.75,36.28 147.72,53.91 775.23,273.61 1570.5,657.35 2372.39,1188.81 0,0 -52.35,1961.47 610.35,4254.18 0.98,3.45 1.97,6.85 2.98,10.25 116.41,397.31 254.08,804.84 417.86,1214.31 1242.06,3121.43 3985.8,6316.71 10022.67,5826.14z"/>
  </g>
 </g>
</svg>
